<svg xmlns="http://www.w3.org/2000/svg" id="Dimensions" viewBox="0 0 415.4 191.49" width="415.4" height="191.49"><defs>
    <style>
      .cls-1 {
        fill: #00a14b;
      }

      .cls-1, .cls-2 {
        stroke: #00a14b;
        stroke-miterlimit: 10;
      }

      .cls-2 {
        fill: none;
        stroke-width: 6px;
      }

      .cls-3 {
        fill: #414042;
      }
    </style>
  </defs><polygon class="cls-3" points="233.79 22.96 208.78 47.97 183.57 22.77 185.66 20.78 203.16 38.29 203.17 38.28 208.86 43.98 231.82 21.02 233.79 22.96"></polygon><polygon class="cls-3" points="248.35 13.55 208.61 53.29 168.54 13.24 171.87 10.08 199.68 37.91 199.7 37.9 208.73 46.95 245.22 10.46 248.35 13.55"></polygon><polygon class="cls-3" points="320.59 61.37 269.57 112.39 245.18 88.25 208.68 124.69 172.37 88.06 147.29 111.9 96.76 61.37 158.15 0 208.68 50.53 259.2 0 320.59 61.37"></polygon><polygon class="cls-3" points="133.2 125.05 101.2 157.05 0 157.05 82.61 74.45 133.2 125.05"></polygon><polygon class="cls-2" points="408.19 154.26 315.68 154.43 284.99 123.74 331.52 77.22 408.19 154.26"></polygon><polygon class="cls-1" points="267.97 131.49 208.68 190.79 148.93 131.03 172.37 108.74 208.68 145.36 245.18 108.93 267.97 131.49"></polygon></svg>